<?xml version="1.0" encoding="utf-8"?>
<!-- Generator: Adobe Illustrator 27.5.0, SVG Export Plug-In . SVG Version: 6.00 Build 0)  -->
<svg version="1.1" id="Layer_1" xmlns="http://www.w3.org/2000/svg" xmlns:xlink="http://www.w3.org/1999/xlink" x="0px" y="0px"
	 viewBox="0 0 1750.26 442.05" style="enable-background:new 0 0 1750.26 442.05;" xml:space="preserve">
<style type="text/css">
	.st0{fill:#070094;}
</style>
<g>
	<g>
		<path class="st0" d="M327.34,28.43l95.39,0v383.49H314.46V231.27l-60.03,88.27h-57.02l-59.76-88.27v180.64H29.1l0-383.49l97.86,0
			l99.23,142.54L327.34,28.43z"/>
		<path class="st0" d="M464.01,220.31c0-114.58,89.36-200.38,203.4-200.38c114.31,0,203.4,85.8,203.4,200.38
			c0,114.03-89.09,200.11-203.4,200.11C553.38,420.42,464.01,334.34,464.01,220.31z M760.34,220.31c0-52.63-39.75-93.2-92.93-93.2
			c-53.18,0-92.65,40.57-92.65,93.2c0,54.82,39.47,92.93,92.65,92.93C720.59,313.24,760.34,275.13,760.34,220.31z"/>
		<path class="st0" d="M1259.12,411.92h-137.61l-100.88-144.19v144.19H911.81V28.43l108.83,0V160
			c71-11.79,74.01-134.32,219.3-134.32v107.18c-58.11,0-71.82,55.65-118.69,93.75L1259.12,411.92z"/>
		<path class="st0" d="M1420.25,420.42c-58.66,0-120.09-23.96-160.06-77.68l68.23-69.25c36.73,37.28,78.12,46.33,97.59,46.33
			c19.19,0,38.38-9.32,38.38-25.77c0-23.03-33.17-30.15-67.43-39.75c-57.57-16.45-122.53-45.23-122.53-119.79
			c0-70.17,60.03-114.58,146.93-114.58c46.05,0,94.02,12.34,137.06,50.16l-65.24,70.45c-27.41-19.19-54.82-28.23-72.92-28.23
			c-17.82,0-32.07,7.95-32.07,21.66c0,19.46,35.91,27.69,73.46,38.65c41.67,12.06,116.5,33.44,116.5,117.6
			C1578.14,368.61,1511.81,420.42,1420.25,420.42z"/>
		<path class="st0" d="M1609.38,76.67c0-37.83,29.88-61.68,64.97-61.68c35.09,0,64.69,23.85,64.69,61.68
			c0,37.01-29.6,61.68-64.69,61.68C1639.26,138.35,1609.38,113.68,1609.38,76.67z M1728.35,160v251.92h-108.83V160H1728.35z"/>
	</g>
</g>
</svg>
