<?xml version="1.0" encoding="utf-8"?>
<!-- Generator: Adobe Illustrator 27.5.0, SVG Export Plug-In . SVG Version: 6.00 Build 0)  -->
<svg version="1.1" id="Layer_1" xmlns="http://www.w3.org/2000/svg" xmlns:xlink="http://www.w3.org/1999/xlink" x="0px" y="0px"
	 viewBox="0 0 225.49 70.88" style="enable-background:new 0 0 225.49 70.88;" xml:space="preserve">
<style type="text/css">
	.st0{fill:#FFFFFF;}
</style>
<g>
	<path class="st0" d="M673.2,166.1c2.1-1.56,4-3.11,6.04-4.43c2.11-1.37,4.34-2.58,6.58-3.74c1.55-0.81,3.13-0.65,4.73,0.13
		c3.88,1.91,6.91,4.71,8.97,8.47c3.78,6.9,5.04,14.26,3.26,21.97c-1.56,6.72-5.63,11.68-11.64,14.93
		c-6.41,3.47-13.12,6.28-20.31,7.7c-7.02,1.39-13.69,0.51-19.65-3.74c-3.42-2.44-5.11-5.83-5.31-10.04
		c-0.38-8.31,2.52-15.59,7.03-22.33c2.64-3.95,5.66-7.62,9.32-10.67c1.27-1.06,2.77-1.96,4.32-2.55c2.79-1.06,4.73-0.1,5.95,2.62
		C672.73,164.92,672.93,165.44,673.2,166.1 M697.54,184.27c-0.04-3.65-0.65-7.19-1.76-10.65c-1.13-3.55-2.95-6.65-5.92-9.03
		c-2.31-1.85-5.01-2.46-7.02-1.22c-1.91,1.18-3.75,2.48-5.51,3.87c-1.71,1.35-2.55,1.46-4.19,0.05c-0.51-0.43-0.84-0.43-1.32,0.05
		c-0.24,0.24-0.82,0.45-1.04,0.32c-2.07-1.16-3.86-0.59-5.38,0.91c-1.9,1.89-3.76,3.84-5.45,5.92c-4.39,5.43-7.09,11.6-7.76,18.61
		c-0.55,5.66,2.34,10.25,7.85,11.64c2.44,0.62,5.13,0.87,7.62,0.58c4-0.47,7.99-1.35,11.89-2.41c2.89-0.79,5.65-2.07,8.41-3.26
		C694.69,196.76,697.54,191.39,697.54,184.27"/>
	<path class="st0" d="M653.77,152.05c-1.25-0.18-3.15-0.29-4.96-0.75c-2.28-0.58-2.88-1.9-2.13-4.1c1.11-3.25,3.37-5.64,6.04-7.64
		c6.32-4.73,13.35-7.88,21.2-8.94c3.17-0.43,6.34-0.17,9.41,0.89c0.54,0.19,1.18,0.22,1.75,0.17c3.43-0.32,6.87-0.43,10.11,0.86
		c1.63,0.65,3.1,1.79,4.53,2.85c0.91,0.67,0.93,1.74,0.17,2.56c-0.84,0.9-1.74,1.88-2.83,2.38c-4.21,1.97-8.44,3.93-12.78,5.59
		c-7.91,3.03-16.17,4.73-24.57,5.71C657.95,151.83,656.18,151.88,653.77,152.05 M658.31,147.22c2.66-0.29,5.61-0.57,8.55-0.94
		c7.56-0.95,14.89-2.82,21.97-5.62c1.07-0.42,2.11-0.99,3.07-1.63c0.86-0.56,0.78-1.33-0.17-1.57c-3.14-0.77-6.37-1.38-9.46-0.07
		c-2.06,0.88-4.17,1.08-6.32,1.27c-1.01,0.09-1.98-0.07-2.63-1.08c-0.19-0.29-0.75-0.55-1.11-0.51c-4.76,0.6-9.42,1.59-13.74,3.77
		c-1.73,0.88-3.3,2.01-4.31,3.74c-0.74,1.26-0.48,1.94,0.96,2.26C656.07,147.03,657.04,147.07,658.31,147.22"/>
	<path class="st0" d="M790.73,195.64c-3.54,0-6.63-1.13-9.14-3.66c-4.43-4.49-3.61-11.35,1.78-15.09
		c4.57-3.17,11.61-2.86,15.89,0.71c5.23,4.37,4.86,11.79-0.79,15.77C796.35,194.84,793.66,195.64,790.73,195.64 M790.79,190.95
		c3.04,0,5.43-1.58,6.15-4.06c1.23-4.19-2.04-7.92-6.61-7.54c-3.34,0.28-5.68,2.44-5.8,5.33
		C784.38,188.51,786.82,190.96,790.79,190.95"/>
	<path class="st0" d="M851.6,186.55h-16.65c-0.14,1.53,0.93,3.25,2.6,4.01c2.61,1.19,5.18,0.99,7.54-0.67
		c0.61-0.43,1.05-0.49,1.71-0.15c1.06,0.55,2.18,1,3.5,1.59c-0.78,0.78-1.39,1.51-2.11,2.09c-4.17,3.34-11.79,2.9-15.57-0.86
		c-3.09-3.09-3.63-6.84-2.4-10.81c1.18-3.8,4.01-6,7.88-6.83c2.46-0.53,4.88-0.28,7.21,0.64
		C849.63,177.26,852.12,181.55,851.6,186.55 M846.35,182.59c-0.92-2.45-3.31-3.84-6.05-3.65c-2.58,0.18-4.62,1.63-5.09,3.65H846.35z
		"/>
	<path class="st0" d="M734.64,175.19c0.06,0.72,0.11,1.22,0.17,1.88c0.72-0.42,1.32-0.79,1.94-1.12c3.26-1.69,6.52-1.82,9.75,0.09
		c1.59,0.94,2.71,2.34,2.76,4.15c0.12,4.92,0.04,9.85,0.04,14.88h-5.57c-0.02-0.43-0.06-0.86-0.06-1.29
		c-0.01-3.29,0.02-6.59-0.03-9.88c-0.05-3.08-1.18-4.49-3.56-4.66c-2.54-0.18-4.74,1.58-5.16,4.23c-0.18,1.14-0.17,2.32-0.18,3.48
		c-0.02,2.68-0.01,5.36-0.01,8.12H729c-0.02-0.42-0.06-0.81-0.06-1.2c0-5.82,0.02-11.64-0.02-17.47c-0.01-0.92,0.2-1.3,1.2-1.24
		C731.59,175.25,733.07,175.19,734.64,175.19"/>
	<path class="st0" d="M775.21,195.09h-5.72c0-0.94,0.01-1.81,0-2.69c-0.03-2.97-0.01-5.94-0.11-8.91c-0.09-2.6-1.12-3.9-3.12-4.2
		c-2.28-0.35-4.46,0.8-5.19,2.99c-0.41,1.23-0.52,2.59-0.56,3.9c-0.08,2.93-0.02,5.86-0.02,8.88h-5.64v-19.78h5.56
		c0.05,0.58,0.1,1.12,0.13,1.45c1.93-0.68,3.79-1.59,5.75-1.96c4.99-0.95,8.91,2.43,8.92,7.48c0.01,3.86,0,7.71,0,11.57V195.09z"/>
	<path class="st0" d="M861.79,195.1h-5.67v-19.82h5.59c0.05,0.58,0.1,1.12,0.13,1.47c1.87-0.67,3.68-1.57,5.6-1.94
		c5.12-1.01,9.07,2.37,9.08,7.56c0,3.77,0,7.55,0,11.32v1.39h-5.7c-0.02-0.44-0.05-0.87-0.06-1.29c-0.01-2.77,0.01-5.54-0.01-8.31
		c-0.01-0.84-0.07-1.68-0.13-2.52c-0.12-1.7-0.8-3.07-2.56-3.54c-1.9-0.51-3.74-0.13-4.85,1.51c-0.75,1.1-1.24,2.55-1.33,3.87
		c-0.2,2.96-0.07,5.94-0.08,8.91C861.79,194.13,861.79,194.57,861.79,195.1"/>
	<path class="st0" d="M823.46,188.87c1.32,0.86,2.6,1.69,4.1,2.66c-0.85,0.76-1.56,1.51-2.38,2.09c-3.78,2.65-10.48,2.71-14.34,0.19
		c-6.59-4.3-6.22-13.78,0.68-17.55c5.02-2.74,11.67-1.93,15.32,1.88c0.27,0.29,0.52,0.6,0.91,1.06c-1.39,0.73-2.67,1.45-4,2.07
		c-0.24,0.11-0.74-0.14-1.02-0.36c-2.22-1.77-4.68-2-7.29-1.16c-2.67,0.87-4.28,3.34-4.04,6.02c0.25,2.77,2.29,4.83,5.16,5.22
		C819.19,191.35,820.89,190.83,823.46,188.87"/>
	<path class="st0" d="M879.66,179.39v-4.13c0.4-0.03,0.75-0.07,1.1-0.07c1.97-0.02,1.76,0.2,1.77-1.85c0.01-1.84,0-3.67,0-5.57h5.76
		c0,1.39-0.01,2.77,0,4.16c0.01,1-0.32,2.31,0.18,2.91c0.45,0.53,1.84,0.28,2.81,0.38c0.08,0.01,0.15,0.05,0.32,0.12v4h-3.28v15.76
		h-5.72c-0.02-0.43-0.07-0.86-0.07-1.28c-0.01-4.34-0.04-8.68,0.02-13.01c0.01-1.09-0.26-1.58-1.4-1.42
		C880.7,179.45,880.22,179.39,879.66,179.39"/>
	<path class="st0" d="M722.93,195.16c-1.58,0-3.1-0.03-4.62,0.01c-0.76,0.02-0.96-0.29-0.95-0.99c0.03-2.61,0.01-5.22,0.01-7.83
		c0-3.33,0.02-6.67-0.02-10c-0.01-0.88,0.25-1.23,1.16-1.18c1.24,0.07,2.49,0.04,3.74,0.01c0.6-0.01,0.87,0.17,0.87,0.82
		c-0.02,6.22-0.02,12.45-0.03,18.67C723.09,194.78,723.02,194.89,722.93,195.16"/>
	<path class="st0" d="M720.28,173.32c-2.02-0.02-3.61-1.44-3.62-3.24c-0.01-1.77,1.63-3.2,3.66-3.18c2.02,0.01,3.59,1.43,3.58,3.26
		C723.9,172.01,722.38,173.33,720.28,173.32"/>
	<path class="st0" d="M675.59,179.04c0.25,0.91,0.51,1.81,0.74,2.72c0.23,0.93,0.55,1.86,0.62,2.8c0.12,1.5-0.65,2.53-1.98,2.93
		c-1.26,0.38-2.61-0.11-3.39-1.24c-1.57-2.29-1.51-7.54,0.17-9.78c0.35-0.46,0.85-0.87,1.37-1.13c1.11-0.55,2-0.17,2.34,1.03
		c0.24,0.84,0.3,1.73,0.44,2.59C675.8,178.99,675.69,179.01,675.59,179.04"/>
	<path class="st0" d="M680.3,179.5c0.1-1.6,0.61-3.08,1.78-4.31c0.74-0.78,1.55-1.3,2.66-0.78c1.19,0.56,2.02,1.87,1.66,3.03
		c-0.44,1.42-0.79,2.79-0.78,4.32c0.01,1.38-1.87,2.22-3.14,1.55C680.99,182.52,680.28,181.23,680.3,179.5"/>
</g>
<g>
	<path class="st0" d="M33.54,54.51h-0.22c-2.57,4.08-6.8,5.9-11.64,5.9c-6.73,0-13.23-3.7-13.23-10.88
		c0-11.79,13.75-12.63,22.82-12.63h2.27v-0.98c0-4.46-3.48-6.8-8.31-6.8c-3.78,0-7.26,1.51-9.68,3.78l-4.76-4.76
		c4.01-4.08,9.67-5.82,15.42-5.82c15.5,0,15.5,11.19,15.5,16.33V59.5h-8.16V54.51z M33.01,43.25h-1.89c-4.98,0-13.6,0.38-13.6,5.59
		c0,3.33,3.4,4.76,6.35,4.76c6.2,0,9.14-3.25,9.14-8.31V43.25z M45.37,23.22h8.62v5.67h0.15c1.59-3.4,5.07-6.58,11.11-6.58
		c5.59,0,9.45,2.19,11.34,6.73c2.64-4.61,6.5-6.73,11.94-6.73c9.68,0,13.08,6.88,13.08,15.57V59.5h-9.07V38.94
		c0-4.54-1.36-8.47-6.73-8.47c-5.67,0-7.78,4.68-7.78,9.37V59.5h-9.07V37.88c0-4.46-1.82-7.41-6.2-7.41c-5.97,0-8.31,4.39-8.31,9.22
		V59.5h-9.07V23.22z M102.64,30.93v-7.71h7.48V12.71h9.07v10.51h9.98v7.71h-9.98V46.8c0,3.63,1.06,5.9,5.07,5.9
		c1.58,0,3.78-0.3,4.91-1.13v7.63c-1.89,0.91-5.07,1.21-7.18,1.21c-9.6,0-11.87-4.3-11.87-12.85V30.93H102.64z M132.33,23.22h9.07
		V59.5h-9.07V23.22z M170.92,34.1c-2.12-2.19-4.46-3.63-6.88-3.63c-6.65,0-10.66,5.21-10.66,10.88s4.01,10.89,10.66,10.89
		c2.8,0,5.37-1.21,7.03-3.4l6.05,6.5c-3.7,3.7-9.9,5.06-13.08,5.06c-10.96,0-19.73-7.63-19.73-19.05c0-11.41,8.77-19.05,19.73-19.05
		c4.61,0,9.67,1.66,13.15,5.52L170.92,34.1z M196.38,22.31c10.96,0,19.73,7.64,19.73,19.05c0,11.42-8.77,19.05-19.73,19.05
		c-10.96,0-19.73-7.63-19.73-19.05C176.65,29.95,185.42,22.31,196.38,22.31 M196.38,52.25c6.65,0,10.66-5.22,10.66-10.89
		s-4.01-10.88-10.66-10.88c-6.65,0-10.66,5.21-10.66,10.88S189.73,52.25,196.38,52.25 M131.05,14.66c0,2.87,2.42,5.44,5.75,5.44
		c3.33,0,5.89-2.34,5.89-5.44c0-3.1-2.57-5.45-5.89-5.45C133.47,9.21,131.05,11.78,131.05,14.66"/>
</g>
</svg>
