<?xml version="1.0" encoding="UTF-8"?>
<svg id="Layer_1" data-name="Layer 1" xmlns="http://www.w3.org/2000/svg" viewBox="0 0 99.35 99.35">
  <defs>
    <style>
      .cls-1 {
        fill: #ff6500;
      }

      .cls-2 {
        fill: #070094;
        fill-rule: evenodd;
      }
    </style>
  </defs>
  <circle class="cls-1" cx="49.67" cy="49.67" r="49.67" transform="translate(-5.76 92.83) rotate(-82.9)"/>
  <path class="cls-2" d="m41.89,64.67c0-4.65-.02-9.3.02-13.95,0-.78-.22-1.03-1-1-1.45.06-2.9,0-4.35.03-.59.01-.8-.15-.8-.77.03-2.9.03-5.8,0-8.7,0-.56.16-.74.73-.73,1.48.03,2.97-.04,4.45.03.86.04,1.04-.26,1.02-1.06-.05-2.21-.05-4.42,0-6.63.06-2.7.78-5.21,2.39-7.41,2.03-2.78,4.92-4.05,8.26-4.19,3.42-.15,6.86-.07,10.28-.1.48,0,.62.17.62.63-.02,2.93-.02,5.87,0,8.8,0,.52-.17.68-.68.67-1.65-.03-3.3-.01-4.95,0-2.19,0-3.51,1.14-3.65,3.31-.11,1.74-.03,3.49-.07,5.24-.01.62.35.58.77.58,2.51,0,5.01.02,7.52-.02.74-.01.98.16.89.93-.32,2.91-.59,5.84-.84,8.76-.06.66-.36.79-.95.78-1.98-.03-3.95-.02-5.93,0-1.42,0-1.28-.21-1.28,1.24,0,9.1-.02,18.2.02,27.3,0,.96-.24,1.2-1.19,1.18-3.4-.06-6.79-.07-10.19,0-.96.02-1.11-.31-1.11-1.16.04-4.58.02-9.16.02-13.75Z"/>
</svg>