<?xml version="1.0" encoding="utf-8"?>
<!-- Generator: Adobe Illustrator 27.5.0, SVG Export Plug-In . SVG Version: 6.00 Build 0)  -->
<svg version="1.1" id="Layer_1" xmlns="http://www.w3.org/2000/svg" xmlns:xlink="http://www.w3.org/1999/xlink" x="0px" y="0px"
	 viewBox="0 0 253.95 62.51" style="enable-background:new 0 0 253.95 62.51;" xml:space="preserve">
<style type="text/css">
	.st0{fill:#FFFFFF;}
</style>
<g>
	<path class="st0" d="M713.39,157.72c2.1-1.55,4-3.11,6.04-4.43c2.11-1.37,4.34-2.58,6.58-3.74c1.55-0.81,3.13-0.65,4.73,0.13
		c3.88,1.91,6.91,4.71,8.97,8.47c3.78,6.9,5.04,14.26,3.26,21.97c-1.56,6.72-5.63,11.68-11.64,14.93
		c-6.41,3.47-13.12,6.28-20.31,7.7c-7.02,1.39-13.69,0.51-19.65-3.74c-3.42-2.44-5.11-5.83-5.31-10.04
		c-0.38-8.31,2.52-15.59,7.03-22.33c2.64-3.95,5.66-7.62,9.32-10.67c1.27-1.06,2.77-1.96,4.32-2.55c2.79-1.06,4.73-0.1,5.95,2.62
		C712.92,156.55,713.12,157.07,713.39,157.72 M737.73,175.9c-0.04-3.65-0.65-7.19-1.76-10.65c-1.13-3.55-2.95-6.65-5.92-9.03
		c-2.31-1.85-5.01-2.46-7.02-1.22c-1.91,1.18-3.75,2.48-5.51,3.87c-1.71,1.35-2.55,1.46-4.19,0.05c-0.51-0.43-0.84-0.44-1.32,0.05
		c-0.24,0.24-0.82,0.45-1.04,0.32c-2.07-1.16-3.86-0.59-5.38,0.91c-1.9,1.89-3.76,3.84-5.45,5.92c-4.39,5.43-7.09,11.6-7.76,18.61
		c-0.55,5.66,2.34,10.25,7.85,11.64c2.44,0.62,5.13,0.87,7.62,0.58c4-0.47,7.99-1.35,11.89-2.41c2.89-0.79,5.65-2.07,8.41-3.26
		C734.88,188.39,737.72,183.02,737.73,175.9"/>
	<path class="st0" d="M693.96,143.68c-1.25-0.18-3.15-0.29-4.96-0.75c-2.28-0.58-2.88-1.9-2.13-4.1c1.11-3.25,3.37-5.64,6.04-7.64
		c6.32-4.73,13.35-7.88,21.2-8.94c3.17-0.43,6.34-0.17,9.41,0.89c0.54,0.19,1.18,0.22,1.75,0.17c3.43-0.32,6.87-0.43,10.11,0.86
		c1.63,0.65,3.1,1.79,4.53,2.85c0.91,0.67,0.93,1.74,0.17,2.56c-0.84,0.9-1.74,1.88-2.83,2.38c-4.21,1.97-8.44,3.93-12.78,5.59
		c-7.91,3.03-16.17,4.73-24.57,5.71C698.14,143.45,696.37,143.51,693.96,143.68 M698.5,138.84c2.66-0.29,5.61-0.57,8.55-0.94
		c7.56-0.95,14.89-2.82,21.97-5.62c1.07-0.42,2.11-0.99,3.07-1.63c0.86-0.56,0.78-1.33-0.17-1.57c-3.14-0.77-6.37-1.38-9.46-0.07
		c-2.06,0.88-4.17,1.08-6.32,1.27c-1.01,0.09-1.98-0.07-2.63-1.08c-0.19-0.29-0.75-0.55-1.11-0.51c-4.76,0.6-9.42,1.59-13.74,3.77
		c-1.73,0.88-3.3,2.01-4.31,3.74c-0.74,1.26-0.48,1.94,0.96,2.26C696.25,138.66,697.23,138.7,698.5,138.84"/>
	<path class="st0" d="M830.91,187.27c-3.54,0-6.63-1.13-9.14-3.66c-4.43-4.49-3.61-11.35,1.78-15.09
		c4.57-3.17,11.61-2.86,15.89,0.71c5.23,4.37,4.86,11.79-0.79,15.77C836.54,186.47,833.84,187.26,830.91,187.27 M830.97,182.58
		c3.04,0,5.43-1.58,6.15-4.06c1.23-4.19-2.04-7.92-6.61-7.54c-3.34,0.28-5.68,2.44-5.8,5.33C824.56,180.14,827,182.58,830.97,182.58
		"/>
	<path class="st0" d="M891.79,178.17h-16.65c-0.14,1.53,0.93,3.25,2.6,4.01c2.61,1.19,5.18,0.99,7.54-0.67
		c0.61-0.43,1.05-0.49,1.71-0.15c1.06,0.55,2.18,1,3.5,1.59c-0.78,0.78-1.39,1.51-2.11,2.09c-4.17,3.34-11.79,2.9-15.57-0.86
		c-3.09-3.09-3.63-6.84-2.4-10.81c1.18-3.8,4.01-6,7.88-6.83c2.46-0.53,4.88-0.28,7.21,0.64
		C889.82,168.89,892.31,173.18,891.79,178.17 M886.54,174.22c-0.92-2.45-3.31-3.84-6.05-3.65c-2.58,0.18-4.62,1.63-5.09,3.65H886.54
		z"/>
	<path class="st0" d="M774.82,166.82c0.06,0.72,0.11,1.22,0.17,1.88c0.72-0.42,1.32-0.79,1.94-1.12c3.26-1.69,6.52-1.82,9.75,0.09
		c1.59,0.94,2.71,2.34,2.76,4.15c0.12,4.92,0.04,9.85,0.04,14.88h-5.57c-0.02-0.43-0.06-0.86-0.06-1.29
		c-0.01-3.29,0.02-6.59-0.03-9.88c-0.05-3.08-1.18-4.49-3.56-4.66c-2.54-0.18-4.74,1.58-5.16,4.23c-0.18,1.14-0.17,2.32-0.18,3.48
		c-0.02,2.68-0.01,5.36-0.01,8.12h-5.72c-0.02-0.42-0.06-0.81-0.06-1.2c0-5.82,0.02-11.64-0.02-17.47c-0.01-0.92,0.2-1.3,1.2-1.24
		C771.77,166.88,773.26,166.82,774.82,166.82"/>
	<path class="st0" d="M815.4,186.72h-5.72c0-0.94,0.01-1.81,0-2.69c-0.03-2.97-0.01-5.94-0.11-8.91c-0.09-2.6-1.12-3.9-3.12-4.2
		c-2.28-0.35-4.46,0.8-5.19,2.99c-0.41,1.23-0.52,2.59-0.55,3.9c-0.08,2.93-0.02,5.86-0.02,8.88h-5.64v-19.78h5.56
		c0.05,0.58,0.1,1.12,0.13,1.45c1.93-0.68,3.79-1.59,5.75-1.96c4.99-0.95,8.91,2.43,8.92,7.48c0.01,3.86,0,7.71,0,11.57V186.72z"/>
	<path class="st0" d="M901.97,186.72h-5.67V166.9h5.59c0.05,0.58,0.1,1.12,0.13,1.47c1.87-0.67,3.68-1.57,5.6-1.94
		c5.12-1.01,9.07,2.37,9.08,7.56c0,3.77,0,7.55,0,11.32v1.39H911c-0.02-0.44-0.05-0.87-0.06-1.29c-0.01-2.77,0.01-5.54-0.01-8.31
		c-0.01-0.84-0.07-1.68-0.13-2.52c-0.12-1.7-0.8-3.07-2.56-3.54c-1.9-0.51-3.74-0.13-4.85,1.51c-0.75,1.1-1.24,2.55-1.33,3.87
		c-0.2,2.96-0.07,5.94-0.08,8.91C901.97,185.76,901.97,186.19,901.97,186.72"/>
	<path class="st0" d="M863.64,180.5c1.32,0.86,2.6,1.69,4.1,2.66c-0.85,0.76-1.56,1.51-2.38,2.09c-3.78,2.65-10.48,2.71-14.34,0.19
		c-6.59-4.3-6.22-13.78,0.68-17.55c5.02-2.74,11.67-1.93,15.32,1.88c0.27,0.29,0.52,0.6,0.91,1.06c-1.39,0.73-2.67,1.45-4,2.07
		c-0.24,0.11-0.74-0.14-1.02-0.36c-2.22-1.77-4.68-2-7.29-1.16c-2.67,0.87-4.28,3.34-4.04,6.02c0.25,2.77,2.29,4.83,5.16,5.22
		C859.38,182.97,861.08,182.46,863.64,180.5"/>
	<path class="st0" d="M919.85,171.02v-4.13c0.4-0.03,0.75-0.07,1.1-0.07c1.97-0.02,1.76,0.2,1.77-1.85c0.01-1.84,0-3.67,0-5.57h5.76
		c0,1.39-0.01,2.77,0,4.16c0.01,1-0.32,2.31,0.18,2.91c0.45,0.53,1.84,0.28,2.81,0.38c0.08,0.01,0.15,0.05,0.32,0.12v4h-3.28v15.76
		h-5.72c-0.02-0.43-0.07-0.86-0.07-1.28c-0.01-4.34-0.04-8.68,0.02-13.01c0.01-1.09-0.26-1.58-1.4-1.42
		C920.88,171.07,920.4,171.02,919.85,171.02"/>
	<path class="st0" d="M763.12,186.79c-1.58,0-3.1-0.03-4.62,0.01c-0.76,0.02-0.96-0.29-0.95-0.99c0.03-2.61,0.01-5.22,0.01-7.83
		c0-3.33,0.02-6.67-0.02-10c-0.01-0.88,0.25-1.23,1.16-1.18c1.24,0.07,2.49,0.04,3.74,0.01c0.6-0.01,0.87,0.17,0.87,0.82
		c-0.02,6.22-0.02,12.45-0.03,18.67C763.27,186.41,763.2,186.52,763.12,186.79"/>
	<path class="st0" d="M760.47,164.94c-2.02-0.02-3.61-1.44-3.62-3.24c-0.01-1.77,1.63-3.2,3.66-3.18c2.02,0.01,3.59,1.43,3.58,3.26
		C764.09,163.64,762.57,164.96,760.47,164.94"/>
	<path class="st0" d="M715.77,170.67c0.25,0.91,0.51,1.81,0.74,2.72c0.23,0.93,0.55,1.86,0.62,2.8c0.12,1.5-0.65,2.53-1.98,2.93
		c-1.26,0.38-2.61-0.11-3.39-1.24c-1.57-2.29-1.51-7.54,0.17-9.78c0.35-0.46,0.85-0.87,1.37-1.13c1.11-0.55,2-0.17,2.34,1.03
		c0.24,0.84,0.3,1.73,0.44,2.59C715.98,170.62,715.88,170.64,715.77,170.67"/>
	<path class="st0" d="M720.49,171.12c0.1-1.6,0.61-3.08,1.78-4.31c0.74-0.78,1.55-1.3,2.66-0.78c1.19,0.56,2.02,1.87,1.66,3.03
		c-0.44,1.42-0.79,2.79-0.78,4.32c0.01,1.38-1.87,2.22-3.14,1.55C721.17,174.15,720.47,172.86,720.49,171.12"/>
</g>
<g>
	<path class="st0" d="M59.22,50.41h-7.92c0-0.88,0-1.71,0-2.54c0-5.47,0.06-10.95-0.03-16.42c-0.05-3.29-2.1-5.72-4.99-6.28
		c-2.94-0.57-5.94,0.84-7,3.51c-0.47,1.19-0.66,2.56-0.67,3.86c-0.07,5.88-0.03,11.75-0.03,17.79h-8.11v-3.45
		c0-5.01,0.02-10.01,0-15.02c-0.02-4.06-2.3-6.63-5.93-6.73c-3.99-0.11-6.51,2.3-6.59,6.58c-0.1,5.32-0.03,10.64-0.04,15.96
		c0,0.84,0,1.69,0,2.68h-7.9c0-6.82-0.15-13.6,0.09-20.37c0.07-2.09,0.84-4.37,1.95-6.16c4.03-6.46,13.9-8.12,20.52-3.69
		c0.64,0.43,1.26,0.88,1.9,1.33c5.32-4.14,11.06-4.93,17.13-2.26c4.87,2.14,7.25,6.32,7.52,11.32
		C59.5,37.04,59.22,43.61,59.22,50.41"/>
	<path class="st0" d="M157.42,37.01h-23.7c-0.09,3.89,5,7.4,10.48,5.83c0.6-0.17,1.33-0.3,1.72-0.71c3.12-3.28,7.03-1.48,10.67-1.97
		c-1.56,7.41-10.13,11.57-18.23,10.1c-10.18-1.85-15.1-10.21-12.81-21.49c1.77-8.74,11.09-14.03,20.81-11.41
		C154.84,19.62,159.27,27.28,157.42,37.01 M149.55,30.53c-0.9-4.15-4.29-6.67-8.42-6.43c-4.08,0.24-7.11,2.77-7.54,6.43H149.55z"/>
	<path class="st0" d="M190.79,50.55c0-4.57,0.07-8.64-0.04-12.7c-0.04-1.61,0.99-1.92,2.09-2.36c5.09-2.04,10.17-4.09,15.78-6.34
		c-5.46-2.24-10.38-4.39-15.41-6.25c-1.89-0.7-2.54-1.57-2.46-3.54c0.16-3.74,0.05-7.5,0.05-11.66
		c17.6,7.14,34.98,14.19,52.78,21.41C225.79,36.34,208.44,43.38,190.79,50.55 M193.33,46.7c14.55-5.92,28.69-11.66,43.25-17.59
		c-14.63-5.94-28.82-11.7-43.25-17.57c0,2.68-0.11,4.88,0.06,7.05c0.06,0.71,0.68,1.7,1.31,2c2.18,1.05,4.5,1.84,6.75,2.75
		c4.59,1.87,9.17,3.76,14.13,5.79c-5.88,2.37-11.32,4.62-16.8,6.75c-5.43,2.12-5.45,2.06-5.45,7.79V46.7z"/>
	<path class="st0" d="M97.03,17.96v6.77c-1.37,0-2.69,0.08-3.99-0.02c-1.48-0.11-1.95,0.6-1.95,1.92c0.02,4.69,0.01,9.38,0,14.07
		c0,1.82,0.87,2.76,2.73,2.74c1.01-0.01,2.03,0,3.33,0c0,1.98,0.11,3.83-0.07,5.65c-0.05,0.47-1,1.19-1.56,1.22
		c-2.43,0.12-4.9,0.24-7.3-0.06c-3.44-0.43-4.88-2.22-4.92-5.74c-0.06-5.7-0.02-11.41-0.04-17.11c0-0.84-0.08-1.68-0.13-2.58
		c-1.29-0.07-2.37-0.12-3.67-0.19v-6.42c3.81-0.66,3.81-0.66,3.81-4.69V7.87h7.82c0,2.53,0.12,5.01-0.04,7.47
		c-0.13,2.02,0.45,2.93,2.6,2.65C94.73,17.84,95.83,17.96,97.03,17.96"/>
	<path class="st0" d="M121.64,25.02c-0.9,0.05-1.53,0.06-2.15,0.11c-4.67,0.34-7.9,3.21-8.16,7.83c-0.28,4.83-0.11,9.69-0.13,14.54
		c0,0.92,0,1.83,0,2.86h-7.47c0-6.81-0.66-13.58,0.17-20.17c1.04-8.32,8.03-12.33,16.12-12.45c1.22-0.02,1.69,0.44,1.64,1.66
		C121.58,21.18,121.64,22.97,121.64,25.02"/>
	<rect x="65.54" y="18.07" class="st0" width="7.58" height="32.23"/>
	<path class="st0" d="M240.07,16.8c1.83-0.03,3.3,1.39,3.34,3.22c0.04,1.86-1.34,3.28-3.2,3.31c-1.9,0.03-3.38-1.36-3.39-3.17
		C236.8,18.4,238.32,16.83,240.07,16.8 M237.54,19.26c0.03,2.52,1.1,3.63,2.64,3.3c1.01-0.21,2.34-1.47,2.51-2.44
		c0.28-1.52-0.99-2.78-2.61-2.51C239.02,17.79,238.12,18.86,237.54,19.26"/>
	<path class="st0" d="M194.32,12.84c13.36,5.42,26.48,10.74,40.14,16.27c-13.64,5.53-26.79,10.87-40.02,16.23
		c-0.11-0.38-0.22-0.58-0.23-0.78c-0.19-5.73-0.2-5.74,5.15-7.93c5.59-2.29,11.19-4.54,16.78-6.82c0.41-0.17,0.77-0.42,1.42-0.77
		c-6.27-2.56-12.27-5.03-18.3-7.47c-5.22-2.11-5.23-2.1-5.06-7.74C194.2,13.59,194.25,13.36,194.32,12.84"/>
	<path class="st0" d="M238.79,18.48c0.9,0.04,1.66,0.08,2.44,0.12v3.31c-0.49-0.45-0.93-0.85-1.46-1.34
		c-0.28,0.38-0.54,0.73-0.98,1.32V18.48z"/>
</g>
</svg>
