<?xml version="1.0" encoding="UTF-8"?><svg id="Layer_1" xmlns="http://www.w3.org/2000/svg" viewBox="0 0 535.57 130.26"><defs><style>.cls-1{fill:#ff6500;}</style></defs><path class="cls-1" d="m95.2,7.53h29.42v118.27h-33.39v-55.71l-18.51,27.22h-17.58l-18.43-27.22v55.71H3.22V7.53h30.18l30.6,43.96L95.2,7.53Z"/><path class="cls-1" d="m382.57,125.8h-42.44l-31.11-44.47v44.47h-33.56V7.53h33.56v40.58c21.9-3.64,22.83-41.43,67.63-41.43v33.06c-17.92,0-22.15,17.16-36.61,28.91l42.52,57.15Z"/><path class="cls-1" d="m432.26,128.42c-18.09,0-37.04-7.39-49.36-23.96l21.04-21.36c11.33,11.5,24.09,14.29,30.1,14.29s11.84-2.87,11.84-7.95c0-7.1-10.23-9.3-20.8-12.26-17.75-5.07-37.79-13.95-37.79-36.94,0-21.64,18.51-35.34,45.31-35.34,14.2,0,29,3.8,42.27,15.47l-20.12,21.73c-8.45-5.92-16.91-8.71-22.49-8.71s-9.89,2.45-9.89,6.68c0,6,11.07,8.54,22.66,11.92,12.85,3.72,35.93,10.31,35.93,36.27,0,24.18-20.46,40.16-48.7,40.16Z"/><path class="cls-1" d="m490.59,22.41c0-11.67,9.22-19.02,20.04-19.02s19.95,7.36,19.95,19.02-9.13,19.02-19.95,19.02-20.04-7.61-20.04-19.02Zm36.69,25.7v77.69h-33.56V48.11h33.56Z"/><path class="cls-1" d="m261.71,65.19c0,34.44-27.19,61.72-61.72,61.72s-61.71-27.28-61.71-61.72S165.56,3.39,200,3.39s61.72,26.93,61.72,61.8Zm-2.68,0c0-33.14-25.89-59.04-59.04-59.04s-58.95,26.07-58.95,59.04,26.07,58.95,58.95,58.95,59.04-25.98,59.04-58.95Zm-13.81,4.58c-2.59,22.87-21.75,40.31-45.05,40.31s-42.55-17.44-44.97-40.31c14.76,5.27,29.86,7.94,44.8,7.94s30.38-2.68,45.23-7.94Zm-3.62,4.23c-13.98,4.4-27.97,6.56-41.78,6.56s-27.71-2.24-41.17-6.65c1.99,8.98,6.82,16.83,13.47,22.7l-.17-.17c6.13-1.73,5.78-6.56,18.82-5.44,12.95,1.04,8.89,3.88,20.28-.17,10.88-3.88,16.14-.78,20.2,2.93,5.01-5.44,8.72-12.26,10.36-19.77Zm-74.92-27.62c0-7.85,5.61-13.55,12.17-13.55s12.26,5.7,12.26,13.55-5.61,8.98-12.26,8.98-12.17-1.21-12.17-8.98Zm42.73,0c0-7.85,5.61-13.55,12.26-13.55s12.17,5.7,12.17,13.55-5.61,9.15-12.17,9.15-12.26-1.38-12.26-9.15Z"/></svg>