<?xml version="1.0" encoding="utf-8"?>
<!-- Generator: Adobe Illustrator 27.5.0, SVG Export Plug-In . SVG Version: 6.00 Build 0)  -->
<svg version="1.1" id="Layer_1" xmlns="http://www.w3.org/2000/svg" xmlns:xlink="http://www.w3.org/1999/xlink" x="0px" y="0px"
	 viewBox="0 0 310.32 62.51" style="enable-background:new 0 0 310.32 62.51;" xml:space="preserve">
<style type="text/css">
	.st0{fill:#FFFFFF;}
</style>
<g>
	<path class="st0" d="M40.18,15.11c-2.09-0.95-4.44-0.95-9.64-0.95H18.56v34.86h3.57V33.54h7.4l0.51-0.01
		c5.78-0.08,6.51-0.09,8.15-0.47c6.27-1.39,6.77-7.44,6.77-9.25C44.96,19.76,43.16,16.53,40.18,15.11 M36.43,29.93
		c-0.89,0.17-1.6,0.18-5.03,0.23l-0.61,0h-8.65V17.38h8.07c6.11,0.06,7.18,0.07,8.72,1.08c1.5,1.05,2.37,2.98,2.37,5.29
		C41.29,27.17,39.53,29.43,36.43,29.93 M83.28,31.04c1.77-1.75,2.66-4.05,2.66-6.8c0-2.14-0.59-7.34-6.2-9.33
		c-2.14-0.73-3.66-0.75-9.39-0.8h-0.32h-9.89v34.9h3.75V33.78h7.7C71.77,34,82.45,49.02,82.45,49.02h4.71
		c0,0-10.67-14.6-11.17-15.27C77.93,33.59,80.91,33.29,83.28,31.04 M63.9,30.46V17.54h7.85h0.3c4.04,0.04,4.45,0.04,5.4,0.23
		c3.04,0.62,4.81,2.94,4.81,6.32c0,1.53-0.46,5.17-4.76,6.03c-1.48,0.3-3.63,0.34-5.74,0.34H63.9z M103.74,14.16h3.77v34.85h-3.77
		V14.16z M153.67,14.18h4.46v34.85h-3.41c0,0-0.06-25.51-0.03-28.02c-0.92,2.36-10.81,28.02-10.81,28.02h-2.58
		c0,0-10.07-25.67-10.99-28.02c0.03,2.51,0.14,28.02,0.14,28.02h-3.42V14.18h4.26c0,0,10.99,27.55,11.45,28.7
		C143.17,41.72,153.67,14.18,153.67,14.18 M186.33,14.16l-14.22,34.86h4.2c0,0,3.76-10.05,3.89-10.37h15.04
		c0.12,0.32,3.93,10.37,3.93,10.37h4.09l-13.88-34.86H186.33z M181.47,35.52c0.24-0.63,5.92-15.43,6.35-16.56
		c0.43,1.13,6.02,15.94,6.26,16.56H181.47z M240.27,31.05c1.77-1.77,2.67-4.06,2.67-6.8c0-2.15-0.62-7.36-6.21-9.33
		c-2.14-0.73-3.67-0.74-9.37-0.8h-0.34h-9.9v34.91h3.77V33.79h7.7c0.14,0.21,10.85,15.24,10.85,15.24h4.72
		c0,0-10.67-14.59-11.18-15.27C234.92,33.61,237.91,33.29,240.27,31.05 M220.89,30.47V17.55h7.83h0.31
		c4.03,0.04,4.46,0.04,5.38,0.24c3.06,0.63,4.81,2.92,4.81,6.33c0,1.52-0.46,5.16-4.76,6.01c-1.44,0.32-3.62,0.35-5.73,0.35H220.89z
		 M274.4,28.01c0.24,0.34,14.75,21,14.75,21h-4.6c0,0-12.42-17.97-12.76-18.45c-0.39,0.4-7.06,7.11-7.2,7.25v11.2h-3.8V14.16h3.8
		v18.8c0.83-0.84,18.33-18.8,18.33-18.8h5.19C288.12,14.16,274.71,27.73,274.4,28.01 M297.28,17.94c0.17-0.06,0.32-0.15,0.44-0.26
		c0.13-0.12,0.22-0.26,0.28-0.42c0.07-0.16,0.1-0.35,0.1-0.55c0-0.22-0.04-0.36-0.1-0.51c-0.06-0.17-0.16-0.31-0.28-0.43
		c-0.13-0.12-0.27-0.21-0.44-0.26c-0.16-0.06-0.35-0.09-0.55-0.09h-2v4.47h0.66v-1.86h0.82l1.31,1.86h0.83L297,18.01
		C297.1,17.99,297.19,17.97,297.28,17.94 M295.38,16.01h1.25c0.25,0,0.45,0.06,0.6,0.19c0.13,0.11,0.21,0.23,0.21,0.5
		c0,0.25-0.07,0.43-0.21,0.55c-0.15,0.12-0.35,0.18-0.6,0.18h-1.25V16.01z M296.3,13.65c-2.19,0-3.98,1.78-3.98,3.98
		c0,2.19,1.79,3.98,3.98,3.98s3.97-1.78,3.97-3.98C300.27,15.44,298.49,13.65,296.3,13.65 M296.3,20.96c-1.84,0-3.33-1.49-3.33-3.33
		c0-1.84,1.49-3.33,3.33-3.33s3.33,1.5,3.33,3.33C299.63,19.47,298.14,20.96,296.3,20.96"/>
</g>
<g>
	<path class="st0" d="M742.97,157.72c2.1-1.55,4-3.11,6.04-4.43c2.11-1.37,4.34-2.58,6.58-3.74c1.55-0.81,3.13-0.65,4.73,0.13
		c3.88,1.91,6.91,4.71,8.97,8.47c3.78,6.9,5.04,14.26,3.26,21.97c-1.56,6.72-5.63,11.68-11.64,14.93
		c-6.41,3.47-13.12,6.28-20.31,7.7c-7.02,1.39-13.69,0.51-19.65-3.74c-3.42-2.44-5.11-5.83-5.31-10.04
		c-0.38-8.31,2.52-15.59,7.03-22.33c2.64-3.95,5.66-7.62,9.32-10.67c1.27-1.06,2.77-1.96,4.32-2.55c2.79-1.06,4.73-0.1,5.95,2.62
		C742.5,156.55,742.7,157.07,742.97,157.72 M767.31,175.9c-0.04-3.65-0.65-7.19-1.76-10.65c-1.13-3.55-2.95-6.65-5.92-9.03
		c-2.31-1.85-5.01-2.46-7.02-1.22c-1.91,1.18-3.75,2.48-5.51,3.87c-1.71,1.35-2.55,1.46-4.19,0.05c-0.51-0.43-0.84-0.44-1.32,0.05
		c-0.24,0.24-0.82,0.45-1.04,0.32c-2.07-1.16-3.86-0.59-5.38,0.91c-1.9,1.89-3.76,3.84-5.45,5.92c-4.39,5.43-7.09,11.6-7.76,18.61
		c-0.55,5.66,2.34,10.25,7.85,11.64c2.44,0.62,5.13,0.87,7.62,0.58c4-0.47,7.99-1.35,11.89-2.41c2.89-0.79,5.65-2.07,8.41-3.26
		C764.46,188.39,767.3,183.02,767.31,175.9"/>
	<path class="st0" d="M723.54,143.68c-1.25-0.18-3.15-0.29-4.96-0.75c-2.28-0.58-2.88-1.9-2.13-4.1c1.11-3.25,3.37-5.64,6.04-7.64
		c6.32-4.73,13.35-7.88,21.2-8.94c3.17-0.43,6.34-0.17,9.41,0.89c0.54,0.19,1.18,0.22,1.75,0.17c3.43-0.32,6.87-0.43,10.11,0.86
		c1.63,0.65,3.1,1.79,4.53,2.85c0.91,0.67,0.93,1.74,0.17,2.56c-0.84,0.9-1.74,1.88-2.83,2.38c-4.21,1.97-8.44,3.93-12.78,5.59
		c-7.91,3.03-16.17,4.73-24.57,5.71C727.72,143.45,725.95,143.51,723.54,143.68 M728.08,138.84c2.66-0.29,5.61-0.57,8.55-0.94
		c7.56-0.95,14.89-2.82,21.97-5.62c1.07-0.42,2.11-0.99,3.07-1.63c0.86-0.56,0.78-1.33-0.17-1.57c-3.14-0.77-6.37-1.38-9.46-0.07
		c-2.06,0.88-4.17,1.08-6.32,1.27c-1.01,0.09-1.98-0.07-2.63-1.08c-0.19-0.29-0.75-0.55-1.11-0.51c-4.76,0.6-9.42,1.59-13.74,3.77
		c-1.73,0.88-3.3,2.01-4.31,3.74c-0.74,1.26-0.48,1.94,0.96,2.26C725.84,138.66,726.81,138.7,728.08,138.84"/>
	<path class="st0" d="M860.49,187.27c-3.54,0-6.63-1.13-9.14-3.66c-4.43-4.49-3.61-11.35,1.78-15.09
		c4.57-3.17,11.61-2.86,15.89,0.71c5.23,4.37,4.86,11.79-0.79,15.77C866.12,186.47,863.43,187.26,860.49,187.27 M860.55,182.58
		c3.04,0,5.43-1.58,6.15-4.06c1.23-4.19-2.04-7.92-6.61-7.54c-3.34,0.28-5.68,2.44-5.8,5.33
		C854.15,180.14,856.58,182.58,860.55,182.58"/>
	<path class="st0" d="M921.37,178.17h-16.65c-0.14,1.53,0.93,3.25,2.6,4.01c2.61,1.19,5.18,0.99,7.54-0.67
		c0.61-0.43,1.05-0.49,1.71-0.15c1.06,0.55,2.18,1,3.5,1.59c-0.78,0.78-1.39,1.51-2.11,2.09c-4.17,3.34-11.79,2.9-15.57-0.86
		c-3.09-3.09-3.63-6.84-2.4-10.81c1.18-3.8,4.01-6,7.88-6.83c2.46-0.53,4.88-0.28,7.21,0.64
		C919.4,168.89,921.89,173.18,921.37,178.17 M916.12,174.22c-0.92-2.45-3.31-3.84-6.05-3.65c-2.58,0.18-4.62,1.63-5.09,3.65H916.12z
		"/>
	<path class="st0" d="M804.41,166.82c0.06,0.72,0.11,1.22,0.17,1.88c0.72-0.42,1.32-0.79,1.94-1.12c3.26-1.69,6.52-1.82,9.75,0.09
		c1.59,0.94,2.71,2.34,2.76,4.15c0.12,4.92,0.04,9.85,0.04,14.88h-5.57c-0.02-0.43-0.06-0.86-0.06-1.29
		c-0.01-3.29,0.02-6.59-0.03-9.88c-0.05-3.08-1.18-4.49-3.56-4.66c-2.54-0.18-4.74,1.58-5.16,4.23c-0.18,1.14-0.17,2.32-0.18,3.48
		c-0.02,2.68-0.01,5.36-0.01,8.12h-5.72c-0.02-0.42-0.06-0.81-0.06-1.2c0-5.82,0.02-11.64-0.02-17.47c-0.01-0.92,0.2-1.3,1.2-1.24
		C801.35,166.88,802.84,166.82,804.41,166.82"/>
	<path class="st0" d="M844.98,186.72h-5.72c0-0.94,0.01-1.81,0-2.69c-0.03-2.97-0.01-5.94-0.11-8.91c-0.09-2.6-1.12-3.9-3.12-4.2
		c-2.28-0.35-4.46,0.8-5.19,2.99c-0.41,1.23-0.52,2.59-0.56,3.9c-0.08,2.93-0.02,5.86-0.02,8.88h-5.64v-19.78h5.56
		c0.05,0.58,0.1,1.12,0.13,1.45c1.93-0.68,3.79-1.59,5.75-1.96c4.99-0.95,8.91,2.43,8.92,7.48c0.01,3.86,0,7.71,0,11.57V186.72z"/>
	<path class="st0" d="M931.56,186.72h-5.67V166.9h5.59c0.05,0.58,0.1,1.12,0.13,1.47c1.87-0.67,3.68-1.57,5.6-1.94
		c5.12-1.01,9.07,2.37,9.08,7.56c0,3.77,0,7.55,0,11.32v1.39h-5.7c-0.02-0.44-0.05-0.87-0.06-1.29c-0.01-2.77,0.01-5.54-0.01-8.31
		c-0.01-0.84-0.07-1.68-0.13-2.52c-0.12-1.7-0.8-3.07-2.56-3.54c-1.9-0.51-3.74-0.13-4.85,1.51c-0.75,1.1-1.24,2.55-1.33,3.87
		c-0.2,2.96-0.07,5.94-0.08,8.91C931.55,185.76,931.56,186.19,931.56,186.72"/>
	<path class="st0" d="M893.22,180.5c1.32,0.86,2.6,1.69,4.1,2.66c-0.85,0.76-1.56,1.51-2.38,2.09c-3.78,2.65-10.48,2.71-14.34,0.19
		c-6.59-4.3-6.22-13.78,0.68-17.55c5.02-2.74,11.67-1.93,15.32,1.88c0.27,0.29,0.52,0.6,0.91,1.06c-1.39,0.73-2.67,1.45-4,2.07
		c-0.24,0.11-0.74-0.14-1.02-0.36c-2.22-1.77-4.69-2-7.29-1.16c-2.67,0.87-4.28,3.34-4.04,6.02c0.25,2.77,2.29,4.83,5.16,5.22
		C888.96,182.97,890.66,182.46,893.22,180.5"/>
	<path class="st0" d="M949.43,171.02v-4.13c0.4-0.03,0.75-0.07,1.1-0.07c1.97-0.02,1.76,0.2,1.77-1.85c0.01-1.84,0-3.67,0-5.57h5.76
		c0,1.39-0.01,2.77,0,4.16c0.01,1-0.32,2.31,0.18,2.91c0.45,0.53,1.84,0.28,2.81,0.38c0.08,0.01,0.15,0.05,0.32,0.12v4h-3.28v15.76
		h-5.72c-0.02-0.43-0.07-0.86-0.07-1.28c-0.01-4.34-0.04-8.68,0.02-13.01c0.01-1.09-0.26-1.58-1.4-1.42
		C950.46,171.07,949.98,171.02,949.43,171.02"/>
	<path class="st0" d="M792.7,186.79c-1.58,0-3.1-0.03-4.62,0.01c-0.76,0.02-0.96-0.29-0.95-0.99c0.03-2.61,0.01-5.22,0.01-7.83
		c0-3.33,0.02-6.67-0.02-10c-0.01-0.88,0.25-1.23,1.16-1.18c1.24,0.07,2.49,0.04,3.74,0.01c0.6-0.01,0.87,0.17,0.87,0.82
		c-0.02,6.22-0.02,12.45-0.03,18.67C792.85,186.41,792.79,186.52,792.7,186.79"/>
	<path class="st0" d="M790.05,164.94c-2.02-0.02-3.61-1.44-3.62-3.24c-0.01-1.77,1.63-3.2,3.66-3.18c2.02,0.01,3.59,1.43,3.58,3.26
		C793.67,163.64,792.15,164.96,790.05,164.94"/>
	<path class="st0" d="M745.35,170.67c0.25,0.91,0.51,1.81,0.74,2.72c0.23,0.93,0.55,1.86,0.62,2.8c0.12,1.5-0.65,2.53-1.98,2.93
		c-1.26,0.38-2.61-0.11-3.39-1.24c-1.57-2.29-1.51-7.54,0.17-9.78c0.35-0.46,0.85-0.87,1.37-1.13c1.11-0.55,2-0.17,2.34,1.03
		c0.24,0.84,0.3,1.73,0.44,2.59C745.56,170.62,745.46,170.64,745.35,170.67"/>
	<path class="st0" d="M750.07,171.12c0.1-1.6,0.61-3.08,1.78-4.31c0.74-0.78,1.55-1.3,2.66-0.78c1.19,0.56,2.02,1.87,1.66,3.03
		c-0.44,1.42-0.79,2.79-0.78,4.32c0.01,1.38-1.87,2.22-3.14,1.55C750.75,174.15,750.05,172.86,750.07,171.12"/>
</g>
</svg>
