<?xml version="1.0" encoding="utf-8"?>
<!-- Generator: Adobe Illustrator 27.5.0, SVG Export Plug-In . SVG Version: 6.00 Build 0)  -->
<svg version="1.1" id="Layer_1" xmlns="http://www.w3.org/2000/svg" xmlns:xlink="http://www.w3.org/1999/xlink" x="0px" y="0px"
	 viewBox="0 0 95.58 95.58" style="enable-background:new 0 0 95.58 95.58;" xml:space="preserve">
<style type="text/css">
	.st0{fill:#070094;}
	.st1{fill:#FF6500;}
</style>
<circle class="st0" cx="47.79" cy="47.79" r="47.79"/>
<path class="st1" d="M74.19,31.41c-1.65,0.75-3.49,1.2-5.27,1.5c0.85-0.14,2.09-1.68,2.59-2.3c0.76-0.95,1.39-2.03,1.75-3.19
	c0.05-0.09,0.08-0.21-0.01-0.27c-0.11-0.05-0.19-0.02-0.28,0.02c-1.99,1.07-4.06,1.84-6.25,2.39c-0.18,0.05-0.32,0-0.43-0.11
	c-0.18-0.21-0.35-0.4-0.55-0.56c-0.92-0.78-1.91-1.4-3.03-1.85c-1.46-0.6-3.07-0.85-4.64-0.75c-1.54,0.1-3.04,0.53-4.41,1.24
	c-1.36,0.71-2.58,1.71-3.55,2.9c-1,1.24-1.74,2.7-2.12,4.25c-0.37,1.5-0.34,2.98-0.11,4.49c0.03,0.25,0.01,0.28-0.22,0.25
	c-8.58-1.28-15.7-4.35-21.47-10.93c-0.25-0.29-0.39-0.29-0.59,0.02c-2.53,3.79-1.3,9.87,1.86,12.87c0.42,0.4,0.85,0.8,1.32,1.16
	c-0.17,0.04-2.27-0.19-4.14-1.16c-0.25-0.16-0.38-0.07-0.4,0.22c-0.02,0.41,0.01,0.79,0.07,1.23c0.49,3.84,3.14,7.39,6.79,8.78
	c0.43,0.18,0.91,0.34,1.38,0.42c-0.83,0.18-1.68,0.31-4.06,0.13c-0.3-0.06-0.41,0.09-0.3,0.38c1.79,4.87,5.65,6.32,8.54,7.15
	c0.39,0.07,0.77,0.07,1.16,0.16c-0.02,0.04-0.05,0.04-0.07,0.07c-0.96,1.46-4.28,2.55-5.83,3.09c-2.82,0.98-5.88,1.43-8.86,1.13
	c-0.48-0.07-0.58-0.06-0.71,0c-0.13,0.08-0.02,0.19,0.14,0.32c0.6,0.4,1.22,0.75,1.84,1.09c1.89,1,3.86,1.8,5.92,2.37
	c10.64,2.94,22.62,0.78,30.61-7.16c6.27-6.23,8.47-14.83,8.47-23.44c0-0.34,0.4-0.52,0.63-0.7c1.63-1.23,2.95-2.69,4.17-4.33
	c0.27-0.37,0.28-0.7,0.28-0.83c0-0.02,0-0.05,0-0.05C74.41,31.28,74.4,31.32,74.19,31.41z"/>
</svg>
