<?xml version="1.0" encoding="utf-8"?>
<!-- Generator: Adobe Illustrator 27.5.0, SVG Export Plug-In . SVG Version: 6.00 Build 0)  -->
<svg version="1.1" id="Layer_1" xmlns="http://www.w3.org/2000/svg" xmlns:xlink="http://www.w3.org/1999/xlink" x="0px" y="0px"
	 viewBox="0 0 95.58 95.58" style="enable-background:new 0 0 95.58 95.58;" xml:space="preserve">
<style type="text/css">
	.st0{fill:#070094;}
	.st1{fill:#FF6500;}
</style>
<circle class="st0" cx="47.79" cy="47.79" r="47.79"/>
<path class="st1" d="M62.62,29.84c-1.81,0-3.28,1.47-3.28,3.28c0,1.81,1.47,3.29,3.28,3.29c1.81,0,3.29-1.47,3.29-3.29
	C65.91,31.31,64.44,29.84,62.62,29.84z"/>
<path class="st1" d="M48.02,34.06c-7.61,0-13.8,6.19-13.8,13.8c0,7.61,6.19,13.8,13.8,13.8c7.61,0,13.8-6.19,13.8-13.8
	C61.82,40.25,55.63,34.06,48.02,34.06z M48.02,56.69c-4.87,0-8.84-3.96-8.84-8.84c0-4.87,3.97-8.84,8.84-8.84s8.84,3.96,8.84,8.84
	C56.86,52.73,52.89,56.69,48.02,56.69z"/>
<path class="st1" d="M58.97,75.87H36.6c-9.28,0-16.83-7.55-16.83-16.83V36.67c0-9.28,7.55-16.83,16.83-16.83h22.37
	c9.28,0,16.83,7.55,16.83,16.83v22.37C75.8,68.32,68.25,75.87,58.97,75.87z M36.6,25.11c-6.37,0-11.56,5.18-11.56,11.56v22.37
	c0,6.37,5.18,11.56,11.56,11.56h22.37c6.37,0,11.56-5.19,11.56-11.56V36.67c0-6.37-5.19-11.56-11.56-11.56H36.6z"/>
</svg>
