<?xml version="1.0" encoding="utf-8"?>
<!-- Generator: Adobe Illustrator 27.5.0, SVG Export Plug-In . SVG Version: 6.00 Build 0)  -->
<svg version="1.1" id="Layer_1" xmlns="http://www.w3.org/2000/svg" xmlns:xlink="http://www.w3.org/1999/xlink" x="0px" y="0px"
	 viewBox="0 0 95.58 95.58" style="enable-background:new 0 0 95.58 95.58;" xml:space="preserve">
<style type="text/css">
	.st0{fill:#070094;}
	.st1{fill:#FF6500;}
</style>
<circle class="st0" cx="47.79" cy="47.72" r="47.79"/>
<g>
	<g>
		<path class="st1" d="M34.74,26.13c0,2.98-2.2,5.39-5.82,5.39c-3.4,0-5.6-2.41-5.6-5.39c0-3.05,2.27-5.39,5.74-5.39
			C32.54,20.75,34.67,23.09,34.74,26.13z M23.61,70.46V35.78h10.78v34.68H23.61z"/>
		<path class="st1" d="M40.84,46.84c0-4.33-0.14-7.94-0.28-11.06h9.36l0.5,4.82h0.21c1.42-2.27,4.89-5.6,10.71-5.6
			c7.09,0,12.41,4.75,12.41,14.96v20.5H62.96V51.24c0-4.47-1.56-7.52-5.46-7.52c-2.98,0-4.75,2.06-5.53,4.04
			c-0.28,0.71-0.36,1.7-0.36,2.7v20H40.84V46.84z"/>
	</g>
</g>
</svg>
